<svg version="1.0" xmlns="http://www.w3.org/2000/svg" width="1365.333" height="1365.333" viewBox="0 0 1024 1024"><defs><mask id="prefix__a"><path fill="#fff" d="M0 0h1024v1024H0z"/><path d="M0 5120V0h10240v10240H0V5120zm4390 1420V5270h360v900h2250l-2-1542c-3-1469-4-1546-22-1608-71-248-256-454-484-537-144-53-260-63-407-38-286 50-526 261-615 540-34 107-40 303-11 415 122 483 648 737 1086 525 50-24 105-53 123-65 23-16 32-18 33-8 2 29 2 93 1 596l-2 522h-645l-23-98c-45-194-139-361-286-507-132-132-292-224-466-269-124-32-282-37-1165-34l-870 3-3 1860c-1 1023 0 1866 3 1873 3 9 128 12 575 12h570V6540z" transform="matrix(.1 0 0 -.1 0 1024)"/><path d="M3540 5937V4363l738-2c782-2 855 1 980 43 123 42 191 84 283 176 109 108 176 225 204 358l7 32H4090v2540h-550V5937z" transform="matrix(.1 0 0 -.1 0 1024)"/><path d="M5868 5873l-828-3v-600h1660v305c0 168-1 304-2 303-2-2-375-4-830-5zM6110 3689c-25-5-73-23-108-41-274-138-351-478-165-731 43-58 161-140 234-162 177-52 358-7 487 121 89 89 133 184 140 303 6 107-8 172-55 263-98 189-315 289-533 247z" transform="matrix(.1 0 0 -.1 0 1024)"/></mask></defs><path fill="#333" d="M0 0h1024v1024H0z"/><path fill="#eee" mask="url(#prefix__a)" d="M0 0h1024v1024H0z"/></svg>